<?xml version="1.0" encoding="UTF-8"?>
<svg width="168.86mm" height="45.843mm" version="1.1" viewBox="0 0 168.86 45.843" xmlns="http://www.w3.org/2000/svg">
  <g transform="translate(444.26 -200.75)">
    <path d="m-342.54 246.26c-0.2131-0.19462-1.0285-0.49387-1.812-0.665-1.552-0.33898-3.6353-1.6982-4.4205-2.8841-0.60003-0.90618-0.66427-3.372-0.1161-4.4562 0.46984-0.92926 1.7961-2.9371 2.4266-3.6736 2.2471-2.625 3.6669-4.5839 3.6669-5.0592 0-0.31368 0.1786-0.71854 0.39687-0.8997 0.62429-0.51811 0.47104-1.1472-0.51143-2.0995-0.49958-0.48422-1.0498-1.222-1.2228-1.6394-0.2196-0.53023-0.50125-0.75901-0.93435-0.75901-0.48559 0-0.91519 0.46024-1.982 2.1232-0.74909 1.1678-1.5703 2.2348-1.825 2.371-0.5952 0.31855-1.4008-0.52191-1.8529-1.9331-0.4409-1.3762-0.97784-1.5158-1.8926-0.49212-1.1057 1.2375-3.1074 2.6935-3.7031 2.6935-1.2985 0-2.6124-1.3074-2.6124-2.5996 0-0.25192 0.41177-1.3172 0.91501-2.3674 1.415-2.9526 5.3648-6.5243 8.556-7.7368l1.3891-0.52782 0.2585 0.67991c0.41709 1.097 0.3012 2.5619-0.36414 4.6028-0.4471 1.3714-0.53462 1.9437-0.31044 2.0297 0.64662 0.24814 2.5042-1.1683 4.36-3.3246 3.5433-4.1171 4.5652-4.9556 5.6944-4.6722 2.0227 0.50766 1.8763 6.3585-0.26244 10.492-0.4098 0.79195-0.98464 1.9043-1.2775 2.4719-0.46151 0.89472-0.51923 1.4228-0.43381 3.9688 0.20741 6.1813-0.0111 13.484-0.42228 14.115-0.43643 0.6705-1.1304 0.76864-1.7076 0.24147m-0.22469-2.8873c0.0167-1.055 0.0648-3.466 0.10683-5.3578 0.10839-4.881-0.0854-5.1554-1.7748-2.5136-0.51179 0.80037-1.4196 2.0427-2.0174 2.7608-1.3154 1.5801-1.537 2.4178-0.98743 3.7331 0.44464 1.0642 0.69144 1.3115 2.5114 2.5167 1.8862 1.2491 2.1256 1.1229 2.1615-1.1393m-9.6352-20.571c1.295-2.6317 0.4208-2.9373-1.4894-0.52071-1.3588 1.719-1.426 2.44-0.2167 2.3234 0.76872-0.0741 0.94962-0.26526 1.7061-1.8027m12.383 0.88859c0.51587-1.0871 0.42373-3.1908-0.15541-3.5487-0.87185-0.53883-1.829 0.98469-1.829 2.9112 0 1.7934 1.246 2.1936 1.9844 0.63744m-66.883 19.652c-2.2046-1.1507-2.9024-2.2864-3.3545-5.4594-0.29086-2.0409-0.26919-2.465 0.23426-4.5851 0.60724-2.5574 2.1229-6.4421 3.0072-7.708 1.1558-1.6543 2.3912-3.0071 2.9996-3.2843 0.88593-0.40366 0.78375-0.79413-0.55589-2.1244-0.75092-0.74569-1.418-1.7761-1.8524-2.8612-0.6001-1.499-0.64471-1.8244-0.38444-2.8034 0.16192-0.60917 0.5099-1.4648 0.77327-1.9013 0.26334-0.43657 0.74078-1.27 1.061-1.8521 1.3426-2.4407 4.0156-5.0889 6.177-6.1196 0.99115-0.47265 1.7886-0.42098 5.0009 0.32403 0.65135 0.15107 0.72761 0.0962 0.72761-0.52355 0-0.56207-0.12444-0.69231-0.66146-0.69231-0.47069 0-0.66146-0.14327-0.66146-0.49677 0-0.98053 1.5599-1.5683 3.2973-1.2424 1.1628 0.21814 1.7298 1.1965 1.7298 2.9847 0 1.2244 0.0444 1.2986 1.1906 1.991 1.2927 0.78083 1.3879 1.0709 0.80727 2.4605-0.44492 1.0648-0.80187 1.1391-1.6491 0.34324-0.75052-0.70506-0.89982-0.57224-1.1601 1.0319-1.3896 8.5656-1.8121 11.536-1.6731 11.761 0.0922 0.14921 0.709-0.26211 1.3911-0.92768 0.98227-0.95843 1.4754-1.232 2.4846-1.3787 0.81185-0.11796 1.3882-0.0759 1.6223 0.11841 0.54054 0.44861 1.0539 4.2752 0.85733 6.3904-0.17796 1.9146-0.7198 3.4184-1.591 4.4154-0.70117 0.80241-2.1696 0.78204-4.768-0.0661-1.1145-0.3638-2.116-0.66146-2.2257-0.66146-0.10964 0-0.41034 0.35719-0.66823 0.79375-0.86558 1.4653-1.9367 0.78772-1.4636-0.92584l0.28246-1.023-2.2759-2.2253c-1.2518-1.2239-2.3478-2.5118-2.4357-2.862-0.0879-0.3502-0.26964-0.63673-0.40386-0.63673-0.336 0-2.6279 2.3952-3.5102 3.6684-0.84492 1.2192-2.1814 4.3963-2.56 6.0854-0.38007 1.696-0.37248 4.2611 0.0164 5.4726 1.0728 3.3436 3.9306 4.4897 7.546 3.0262 0.87313-0.35344 1.8502-0.8051 2.1712-1.0037 1.1438-0.70759 1.1605-0.0113 0.0214 0.89294-1.4806 1.1754-3.8246 1.9702-6.2937 2.1342-1.7508 0.11626-2.1334 0.054-3.2502-0.52896l-1e-4 -5e-5m18.713-13.456c0.31324-0.44721 0.41188-1.2974 0.41188-3.5502 0-4.4417-0.19455-4.6248-2.4211-2.2779-2.6422 2.7851-3.6683 4.7128-2.8083 5.2761 0.84627 0.55421 2.5455 1.112 3.4285 1.1253 0.72046 0.0109 1.0854-0.1397 1.3891-0.57326m-6.859-3.4476c0.0888-0.47333 0.12396-1.4556 0.0781-2.1828-0.0796-1.2634-0.13383-1.3477-1.2196-1.8957-0.89717-0.45281-1.3109-0.52337-1.9665-0.33534-1.4066 0.40339-1.3966 0.63295 0.0997 2.3099 0.77851 0.87248 1.6294 1.8964 1.8909 2.2754 0.63035 0.91375 0.92213 0.86897 1.1173-0.17151h8e-5m-4.1943-6.8371c1.0343-0.44806 1.5903-0.52298 2.9085-0.39195 2.4906 0.24757 2.5448 0.147 2.9106-5.4041 0.11028-1.6735 0.20534-3.8166 0.21129-4.7625l0.0109-1.7198-1.1906-0.58441c-1.3148-0.64537-2.8983-0.771-3.7877-0.3005-1.751 0.9263-2.8895 2.2247-4.025 4.5906-1.901 3.9609-1.8314 5.1476 0.45813 7.8062 0.62526 0.72607 1.1568 1.3202 1.1811 1.3203 0.0243 7e-5 0.61963-0.24915 1.3229-0.55382m-14.18 10.44c-0.3016-0.38342-0.54838-0.84648-0.54838-1.029 0-0.18253-0.21974-0.60326-0.48834-0.93496l-0.48834-0.60308-0.9257 0.70606c-0.50914 0.38833-1.1186 0.70606-1.3544 0.70606-0.2358 0-0.54867 0.22412-0.69527 0.49804-0.31774 0.5937-0.92562 0.8656-1.469 0.65708-0.46596-0.1788-0.78568-1.3101-1.1864-4.1978-0.45792-3.2998-0.53607-3.5727-1.0203-3.5632-0.52522 0.0103-1.8704 1.541-3.5962 4.0924-1.612 2.3829-1.8253 2.545-2.8865 2.193-1.3403-0.44454-1.5193-0.77697-1.7649-3.2776-0.38317-3.9007-0.95715-6.1914-1.5515-6.1914-0.11576 0-0.5806 0.50601-1.0331 1.1245-1.6285 2.2261-5.5418 6.4412-7.7316 8.328-2.2933 1.9759-3.2792 2.361-3.9561 1.5454-0.51469-0.62016 0.27726-1.4927 2.7937-3.078 1.2551-0.79068 2.6629-1.7584 3.1285-2.1506 1.197-1.0081 3.4715-4.0491 5.7995-7.7537 2.7662-4.4019 2.9753-4.652 3.6729-4.3939 0.89603 0.33146 1.1602 0.9447 0.74295 1.7244-0.28012 0.52342-0.32417 1.5669-0.19892 4.7136 0.15111 3.7962 0.48612 5.7611 0.98224 5.7611 0.11827 0 1.8267-1.6966 3.7965-3.7703 2.3789-2.5044 3.6696-3.6815 3.844-3.5057 0.26393 0.26597 1.2598 5.6981 1.4067 7.6729 0.0734 0.9865 0.13833 1.064 0.95732 1.1426 1.2063 0.11575 1.8648-0.39014 3.3643-2.5847 0.7983-1.1684 1.4412-1.8539 1.693-1.8054 0.48149 0.0927 0.77404 1.5018 0.79568 3.8325 0.0122 1.314 0.12613 1.7466 0.56846 2.1587 0.73271 0.68264 0.56589 1.3384-0.52803 2.0756-1.148 0.77363-1.4517 0.76039-2.1226-0.0925v-3e-5m60.08-28.913 0.47744-0.24348m2.3138 0.57509c0.0521 0.0764 0.10996 0.15699 0.1728 0.24027 0.0787 0.1043 0.15417 0.20907 0.22645 0.31438m-1.9302-1.2597a2.1548 2.1549 0 0 0-1.1281 0.28835 2.1548 2.1549 0 0 0-0.13229 0.0853 2.1548 2.1549 0 0 0 0 5.2e-4l-1.1214 0.57154c-2.081 1.0612-6.9378 5.7955-8.754 8.5328-4.7541 7.1653-6.0021 13.125-3.7822 18.057v5.3e-4c0.34383 0.76377 0.78058 1.3847 0.97047 1.3787 0.18994-6e-3 0.58544-0.39255 0.87902-0.8599 0.39471-0.62831 0.84276-0.9264 1.7198-1.1441 1.5555-0.38613 3.6995-1.8366 3.6995-2.5027 0-0.61863-0.84363-0.69118-1.3229-0.11369-0.23122 0.2786-0.84386 0.39688-2.0562 0.39688h-1.727l0.16689-2.3513c0.27652-3.8954 2.1935-8.3686 6.1356-14.317 2.9367-4.4317 3.752-5.2917 5.0188-5.2917h0.98444l-0.11832 1.1245c-0.11587 1.0992 0.36083 2.5797 0.83095 2.5797 0.12411 0 0.37367 0.35718 0.55448 0.79375 0.25631 0.61876 0.49459 0.79375 1.0811 0.79375 0.98576 0 1.3002-0.62783 1.3002-2.5962 0-1.5731-0.40499-2.9088-1.2681-4.1667l-0.0269-7e-3a2.1548 2.1549 0 0 0-0.87696-0.96428 2.1548 2.1549 0 0 0-1.0263-0.28836zm-25.906 27.659c-1.0678-0.52684-1.691-1.0701-2.341-2.0409-0.80176-1.1975-0.87542-1.4672-0.77687-2.8445 0.0876-1.224 0.25535-1.6745 0.85744-2.3029 1.1892-1.2412 2.2256-1.5994 4.6275-1.5994 1.9351 0 2.2211 0.0662 2.8043 0.64944 0.45551 0.45551 0.64942 0.94177 0.64942 1.6285 0 1.3427-1.5599 2.8371-3.5718 3.422-2.3013 0.66899-2.1465 1.1966 0.48083 1.6394 1.1805 0.19896 1.7895 0.17317 2.6134-0.11069 0.59084-0.20356 1.1281-0.31626 1.1939-0.25044 0.22765 0.22764-0.79759 1.5169-1.4832 1.8652-0.37857 0.19231-1.3432 0.42-2.1435 0.50599-1.2398 0.1332-1.6706 0.0501-2.9104-0.5616m2.4885-5.2286c0.23207-0.23207 0.42193-0.524 0.42193-0.64873 0-0.48152-0.86569-1.0583-1.5884-1.0583-1.0046 0-2.0152 1.3158-1.6027 2.0866 0.15103 0.2822 0.42477 0.56666 0.60833 0.63214 0.39018 0.13917 1.5556-0.40647 2.1608-1.0117m93.881 5.5554c-0.85761-0.60066-1.2177-1.393-1.3757-3.0265-0.1931-1.9969-0.6761-1.9843-1.9925 0.0519-1.1289 1.746-2.3839 2.6152-3.8771 2.6849-0.7241 0.0338-0.9073-0.10839-1.4523-1.1274-0.38911-0.72739-0.6267-1.6232-0.6315-2.3812 0-0.66833-0.2389-2.0486-0.52141-3.0672-0.553-1.9935-0.6806-4.9078-0.2825-6.4516 0.13571-0.52621 0.45071-1.7902 0.7001-2.8088 0.5412-2.2115 1.079-3.3437 2.3334-4.9132 3.4341-4.2964 6.0776-5.4143 8.4766-3.5845 1.4198 1.083 2.6145 4.229 2.3261 6.1258-0.13049 0.85824-1.0275 1.2831-1.9246 0.91151-0.79579-0.32964-1.575-2.036-1.575-3.4491 0-0.8172-0.3564-1.1883-1.3905-1.4479-1.0736-0.26946-1.9354 0.0384-3.1312 1.1187-1.3778 1.2448-1.6978 1.896-2.2356 4.5506-0.35291 1.7416-0.4182 3.1862-0.32211 7.1248 0.1333 5.4606 0.38501 6.6601 1.3976 6.6601 0.48039 0 0.7669-0.30632 1.2992-1.3891 0.3756-0.76399 1.5053-2.7222 2.5105-4.3515 1.0051-1.6293 1.9051-3.2069 2-3.5057 0.095-0.29881 0.3132-0.54238 0.4853-0.54125 0.4418 3e-3 1.5035 1.9536 1.5035 2.7624 0 0.57626 0.11821 0.67518 0.80691 0.67518 1.0209 0 2.2904 0.6463 2.4628 1.2539 0.073 0.25626 0.27169 1.1208 0.44229 1.9211 0.2978 1.3977 0.27671 1.5251-0.53469 3.2222-0.96841 2.0255-1.421 2.5069-2.8291 3.0091-1.333 0.47544-1.9601 0.46906-2.6685-0.0271v2e-5m3.997-2.627c0.52839-0.52831 0.79259-2.2527 0.4738-3.0914-0.3454-0.90825-1.4267-1.1119-2.2916-0.43155-0.50479 0.39707-0.65269 0.75987-0.65269 1.6016 0 1.7716 1.474 2.9179 2.4705 1.9213m-51.928 1.8112c-0.72412-0.92056-0.69686-1.1602 0.27024-2.3753 1.02-1.2816 1.8272-2.9227 1.8272-3.7148 0-0.67891-0.84319-1.2518-1.5313-1.0404-0.24916 0.0765-1.0688 0.19323-1.8214 0.2593-1.0236 0.0899-1.4049 0.0251-1.5131-0.25698-0.31572-0.82283 2.8664-3.562 4.5229-3.8933 0.4493-0.0899 1.2591-0.0916 1.7995-4e-3l0.98258 0.15945-0.16803 1.2666c-0.1366 1.0298-0.0843 1.3135 0.27961 1.5171 0.56038 0.3136 1.6896 3e-3 2.7597-0.75898 0.55485-0.39509 1.3551-0.62338 2.5104-0.71612 2.3673-0.19002 2.5608 0.0159 2.3368 2.4878-0.13186 1.455-0.0946 1.9457 0.1478 1.9457 0.17827 0 1.0636-0.74414 1.9675-1.6536 1.8037-1.815 2.818-2.4696 3.4506-2.2269 0.75627 0.29021 1.4726 1.8289 1.4736 3.1655v1.2694l1.6261-0.0788c1.7166-0.0831 1.7503-0.10823 2.3623-1.7552 0.20076-0.54038 0.88599-1.304 1.7669-1.9691 1.2138-0.91644 1.6349-1.0864 2.6912-1.0864 1.7425 0 2.8216 0.71412 3.7523 2.483 0.9776 1.8581 0.98601 3.1468 0.032 4.8904-0.94101 1.7197-2.4993 2.6441-4.0236 2.3866-1.3325-0.22512-2.9839-1.4202-3.843-2.7812-0.58332-0.92405-0.76582-1.0427-1.3932-0.90591-1.5082 0.32886-2.1898 0.73683-3.1125 1.8628-1.6466 2.0094-2.7689 1.4615-2.7689-1.3515 0-2.6243-0.74741-3.1891-2.013-1.5214-1.5074 1.9865-2.8016 3.2106-3.5738 3.3802-0.43362 0.0952-0.93043 0.40058-1.104 0.67854-0.39164 0.62709-0.62855 0.6377-0.94496 0.0423-0.15867-0.29851-0.1119-1.2621 0.13166-2.712 0.61049-3.6347 0.61769-3.5598-0.3516-3.6536-0.55635-0.0539-1.0076 0.0853-1.3229 0.40819-1.2467 1.2762-4.7433 5.217-5.0764 5.7213-0.41818 0.63308-1.0901 1.2283-1.3867 1.2283-0.10715 0-0.44159-0.31372-0.74319-0.69714l4e-5 1.5e-4m28.767-3.0144c1.5775-1.4697 0.70081-4.2375-1.3359-4.2176-1.2622 0.0123-1.8159 0.54954-1.8328 1.7782-0.02 1.4831 0.24511 2.1285 1.0572 2.5695 0.97111 0.52728 1.4367 0.49859 2.1115-0.13009m-111.85-7.9434c-1.0504-0.97951-1.1232-1.1286-0.84696-1.735 0.26392-0.57926 0.44461-0.65303 1.4255-0.58204 1.0388 0.0752 1.1476 0.15593 1.4473 1.0739 0.35695 1.0934 0.0785 2.3147-0.52763 2.3147-0.19193 0-0.86612-0.48222-1.4982-1.0716"/>
  </g>
</svg>
